<?xml version="1.0" encoding="UTF-8"?>
<svg width="32px" height="32px" viewBox="0 0 32 32" version="1.1" xmlns="http://www.w3.org/2000/svg" xmlns:xlink="http://www.w3.org/1999/xlink">
    <!-- Generator: Sketch 43.2 (39069) - http://www.bohemiancoding.com/sketch -->
    <title>Glyph/Upload/Dark</title>
    <desc>Created with Sketch.</desc>
    <defs></defs>
    <g id="Symbols" stroke="none" stroke-width="1" fill="none" fill-rule="evenodd">
        <g id="Glyph/Upload/Dark" fill-rule="nonzero" fill="#111926">
            <g id="Group-2" transform="translate(5.000000, 6.000000)">
                <path d="M21.5877773,14.6479365 C21.3418487,14.4029672 21.0425378,14.2805974 20.6906303,14.2805974 L15.0561345,14.2805974 C14.8715378,14.7703063 14.5613655,15.1725689 14.1259412,15.4873851 C13.6903319,15.8022473 13.204437,15.9597702 12.6679328,15.9597702 L9.28954622,15.9597702 C8.7529958,15.9597702 8.26691597,15.8022013 7.83158403,15.4873851 C7.39606723,15.1725689 7.08607983,14.7703523 6.90134454,14.2805974 L1.2667563,14.2805974 C0.914941176,14.2805974 0.615861345,14.4029672 0.369470588,14.6479365 C0.12312605,14.8926302 0,15.1899847 0,15.5399081 L0,19.738116 C0,20.0878096 0.12312605,20.3855317 0.369470588,20.6300416 C0.615815126,20.874919 0.914894958,20.9972429 1.2667563,20.9972429 L20.6908151,20.9972429 C21.0425378,20.9972429 21.3418487,20.874919 21.587916,20.6300416 C21.8343529,20.3852101 21.9573866,20.0878096 21.9573866,19.738116 L21.9573866,15.5399081 C21.9573866,15.1899847 21.8343529,14.8929519 21.5877773,14.6479365 Z M16.6398109,19.0690109 C16.4724538,19.2352188 16.2744538,19.3184376 16.0457185,19.3184376 C15.8169832,19.3184376 15.6192605,19.2352188 15.4519496,19.0690109 C15.284916,18.9029869 15.2013992,18.7060832 15.2013992,18.4786674 C15.2013992,18.2512516 15.284916,18.054256 15.4519496,17.8883239 C15.6192605,17.7222998 15.8169832,17.6388972 16.0457185,17.6388972 C16.2744538,17.6388972 16.4724076,17.7222538 16.6398109,17.8883239 C16.8067983,18.0542101 16.8903613,18.2512516 16.8903613,18.4786674 C16.8903613,18.7060832 16.8067983,18.9029409 16.6398109,19.0690109 Z M20.0176429,19.0690109 C19.8506092,19.2352188 19.6526092,19.3184376 19.4238277,19.3184376 C19.1951387,19.3184376 18.9972773,19.2352188 18.8300588,19.0690109 C18.6630714,18.9029869 18.5795546,18.7060832 18.5795546,18.4786674 C18.5795546,18.2512516 18.6630714,18.054256 18.8300588,17.8883239 C18.9972311,17.7222998 19.1950924,17.6388972 19.4238277,17.6388972 C19.652563,17.6388972 19.850563,17.7222538 20.0176429,17.8883239 C20.1848151,18.0542101 20.2684706,18.2512516 20.2684706,18.4786674 C20.2684706,18.7060832 20.1849538,18.9029409 20.0176429,19.0690109 Z" id="Shape"></path>
                <path d="M5.06702521,7.56321663 L8.44508824,7.56321663 L8.44508824,13.4408731 C8.44508824,13.6682429 8.52869748,13.8651007 8.69577731,14.0312166 C8.86294958,14.1972407 9.06090336,14.2805974 9.28954622,14.2805974 L12.6679328,14.2805974 C12.8966218,14.2805974 13.0943908,14.1972867 13.2617017,14.0312166 C13.4287353,13.8651466 13.5122521,13.6682888 13.5122521,13.4408731 L13.5122521,7.56321663 L16.8904076,7.56321663 C17.2600168,7.56321663 17.5195798,7.388186 17.6689118,7.03844639 C17.818521,6.69739168 17.7568193,6.39557987 17.4841765,6.1331488 L11.572416,0.255584245 C11.4139328,0.0893763676 11.2162563,0.00624945295 10.9786471,0.00624945295 C10.7412689,0.00624945295 10.5433151,0.0893763676 10.3848782,0.255584245 L4.47330252,6.1331488 C4.20052101,6.39557987 4.1390042,6.69720788 4.28847479,7.03844639 C4.43817647,7.3883698 4.69764706,7.56321663 5.06702521,7.56321663 Z" id="Shape"></path>
            </g>
        </g>
    </g>
</svg>