<?xml version="1.0" encoding="UTF-8"?>
<svg width="19px" height="14px" viewBox="0 0 19 14" version="1.1" xmlns="http://www.w3.org/2000/svg" xmlns:xlink="http://www.w3.org/1999/xlink">
    <!-- Generator: Sketch 42 (36781) - http://www.bohemiancoding.com/sketch -->
    <title>Group 2</title>
    <desc>Created with Sketch.</desc>
    <defs></defs>
    <g id="Symbols" stroke="none" stroke-width="1" fill="none" fill-rule="evenodd">
        <g id="cursusblock/student" transform="translate(-27.000000, -75.000000)" fill="#1B2432">
            <g id="Group-5" transform="translate(27.000000, 75.000000)">
                <g id="Group-2">
                    <path d="M12.095843,0.0572727273 C11.4739552,0.0572727273 10.9456188,0.56110303 10.9456188,1.18032727 L10.9456188,1.67524848 C10.3492063,2.27512727 8.92011659,3.30009697 6.53225112,4.03327273 C4.88743049,4.53829091 2.02294619,4.82609697 1.50040359,4.87530909 C1.47441704,4.83873939 1.453713,4.80361212 1.42150673,4.77111515 C1.26729148,4.61550303 1.06536323,4.52904242 0.840600897,4.52768485 C0.390479821,4.52768485 0.0237713004,4.89236364 0.0208744395,5.34070303 L-6.71498447e-14,8.6996 C-0.00144843049,8.9181697 0.0831569507,9.1337697 0.237372197,9.28929697 C0.391672646,9.44490909 0.597860987,9.5422303 0.817340807,9.5422303 L0.822623318,9.5422303 C1.04798206,9.5422303 1.25280717,9.44134545 1.40156951,9.29387879 C1.44570404,9.70726061 1.57870404,10.1051152 1.79852466,10.473103 C2.1993139,11.144 2.83858296,11.6170303 3.59841256,11.8091273 C3.83561435,11.8692 4.07920628,11.8983879 4.3223722,11.8983879 C5.51613453,11.8983879 6.54128251,11.1815879 6.99370404,10.1113091 C9.101,10.8304 10.3491211,11.7595758 10.9455336,12.3189818 L10.9455336,12.8131394 C10.9455336,13.4324485 11.47387,13.9361939 12.0957578,13.9361939 C12.7176457,13.9361939 13.2459821,13.4323636 13.2459821,12.8131394 L13.2459821,1.18041212 C13.2460673,0.56110303 12.7176457,0.0572727273 12.095843,0.0572727273 Z M0.822623318,9.27393939 L0.822623318,9.27393939 L0.822623318,9.27419394 L0.822623318,9.27393939 Z M4.3223722,10.1545818 C4.22439013,10.1545818 4.12564126,10.1421939 4.02910762,10.1177576 C3.72229596,10.0401212 3.46421973,9.84810909 3.30242152,9.57727273 C3.25130045,9.49174545 3.21313004,9.40121212 3.18535426,9.30830303 C3.8380852,9.39450909 4.58999103,9.50854545 5.29222422,9.64947879 C5.07555605,9.95883636 4.71796413,10.1545818 4.3223722,10.1545818 Z" id="Shape"></path>
                    <path d="M18.0850179,4.01350303 C17.8106682,3.61726061 17.2658027,3.51764848 16.8681659,3.79069091 C16.4703587,4.06381818 16.3701614,4.60633939 16.644426,5.00249697 C17.0364395,5.56877576 17.243565,6.25486061 17.243565,6.98650909 C17.243565,7.71552727 17.0269821,8.42579394 16.6336906,8.98638788 C16.3569552,9.38084848 16.4537444,9.92404848 16.8498475,10.1996364 C17.0024439,10.3057818 17.1771928,10.3567758 17.3501525,10.3567758 C17.6262063,10.3567758 17.898,10.2269576 18.068148,9.98437576 C18.6734215,9.12155152 18.9933543,8.08487273 18.9933543,6.98650909 C18.9934395,5.89993939 18.6793004,4.87191515 18.0850179,4.01350303 Z" id="Shape"></path>
                    <path d="M15.8620179,4.97364848 C15.5877534,4.57740606 15.0428879,4.47779394 14.6451659,4.75083636 C14.2473587,5.02396364 14.1471614,5.56648485 14.421426,5.96264242 C14.620287,6.24993939 14.7297713,6.61495758 14.7297713,6.99041212 C14.7297713,7.37002424 14.6183274,7.73792727 14.4159731,8.02624242 C14.1391525,8.42061818 14.2359417,8.96390303 14.6319596,9.23949091 C14.7845561,9.34572121 14.9593049,9.39671515 15.1323498,9.39671515 C15.4084036,9.39671515 15.6801121,9.26689697 15.8502601,9.0244 C16.2619552,8.43775758 16.4795605,7.73444848 16.4795605,6.99041212 C16.4795605,6.25460606 16.2660448,5.55715152 15.8620179,4.97364848 Z" id="Shape"></path>
                </g>
            </g>
        </g>
    </g>
</svg>