<?xml version="1.0" encoding="UTF-8"?>
<svg width="297px" height="297px" viewBox="0 0 297 297" version="1.1" xmlns="http://www.w3.org/2000/svg" xmlns:xlink="http://www.w3.org/1999/xlink">
    <!-- Generator: Sketch 42 (36781) - http://www.bohemiancoding.com/sketch -->
    <title>course-black</title>
    <desc>Created with Sketch.</desc>
    <defs></defs>
    <g id="Page-1" stroke="none" stroke-width="1" fill="none" fill-rule="evenodd">
        <g id="course-black" fill-rule="nonzero" fill="#000000">
            <g id="Group">
                <path d="M287.631,15.459 L157.869,15.459 L157.869,9.369 C157.869,4.195 153.674,0 148.5,0 C143.326,0 139.131,4.195 139.131,9.369 L139.131,15.459 L9.369,15.459 C4.195,15.459 0.001,19.654 0.001,24.828 L0.001,55.746 C0.001,60.92 4.195,65.115 9.369,65.115 L15.459,65.115 L15.459,225.795 C15.459,230.969 19.654,235.164 24.828,235.164 L129.762,235.164 L94.628,282.01 C91.524,286.149 92.362,292.022 96.502,295.126 C98.187,296.391 100.159,297 102.116,297 C104.964,297 107.777,295.706 109.618,293.252 L139.131,253.902 L139.131,287.631 C139.131,292.805 143.326,297 148.5,297 C153.674,297 157.869,292.805 157.869,287.631 L157.869,253.902 L187.382,293.252 C189.223,295.706 192.035,297 194.884,297 C196.841,297 198.813,296.39 200.498,295.126 C204.638,292.022 205.477,286.148 202.372,282.01 L167.238,235.164 L272.172,235.164 C277.346,235.164 281.54,230.969 281.54,225.795 L281.54,65.115 L287.631,65.115 C292.805,65.115 296.999,60.92 296.999,55.746 L296.999,24.828 C296.999,19.654 292.805,15.459 287.631,15.459 Z M18.738,46.377 L18.738,34.197 L278.261,34.197 L278.261,46.377 L18.738,46.377 Z M262.803,216.426 L34.197,216.426 L34.197,65.115 L262.802,65.115 L262.802,216.426 L262.803,216.426 Z" id="Shape"></path>
                <path d="M71.205,142.411 L210.336,142.411 C215.51,142.411 219.705,138.216 219.705,133.042 C219.705,127.868 215.51,123.673 210.336,123.673 L71.205,123.673 C66.031,123.673 61.836,127.868 61.836,133.042 C61.836,138.216 66.031,142.411 71.205,142.411 Z" id="Shape"></path>
                <path d="M71.205,111.493 L102.123,111.493 C107.297,111.493 111.492,107.299 111.492,102.124 C111.492,96.95 107.297,92.755 102.123,92.755 L71.205,92.755 C66.031,92.755 61.836,96.95 61.836,102.124 C61.836,107.299 66.031,111.493 71.205,111.493 Z" id="Shape"></path>
                <path d="M71.205,173.328 L163.959,173.328 C169.133,173.328 173.328,169.133 173.328,163.959 C173.328,158.785 169.133,154.59 163.959,154.59 L71.205,154.59 C66.031,154.59 61.836,158.785 61.836,163.959 C61.836,169.133 66.031,173.328 71.205,173.328 Z" id="Shape"></path>
            </g>
        </g>
    </g>
</svg>