<?xml version="1.0" encoding="UTF-8"?>
<svg width="19px" height="14px" viewBox="0 0 19 14" version="1.1" xmlns="http://www.w3.org/2000/svg" xmlns:xlink="http://www.w3.org/1999/xlink">
    <!-- Generator: Sketch 42 (36781) - http://www.bohemiancoding.com/sketch -->
    <title>Group 3</title>
    <desc>Created with Sketch.</desc>
    <defs></defs>
    <g id="Symbols" stroke="none" stroke-width="1" fill="none" fill-rule="evenodd">
        <g id="cursusblock/student" transform="translate(-138.000000, -75.000000)" fill="#1B2432">
            <g id="Group-5" transform="translate(27.000000, 75.000000)">
                <g id="Group-3" transform="translate(111.000000, 0.000000)">
                    <path d="M18.396,6.97494737 L18.396,7.68305263 C18.396,8.07505263 18.0791579,8.39115789 17.6878947,8.39115789 L16.2709474,8.39115789 L16.2709474,9.80810526 C16.2709474,10.2001053 15.9541053,10.5162105 15.5628421,10.5162105 L14.8547368,10.5162105 C14.4627368,10.5162105 14.1466316,10.1993684 14.1466316,9.80810526 L14.1466316,8.39115789 L12.7296842,8.39115789 C12.3376842,8.39115789 12.0215789,8.07431579 12.0215789,7.68305263 L12.0215789,6.97494737 C12.0215789,6.58294737 12.3384211,6.26684211 12.7296842,6.26684211 L14.1466316,6.26684211 L14.1466316,4.84989474 C14.1466316,4.45789474 14.4634737,4.14178947 14.8547368,4.14178947 L15.5628421,4.14178947 C15.9548421,4.14178947 16.2709474,4.45863158 16.2709474,4.84989474 L16.2709474,6.26684211 L17.6878947,6.26684211 C18.0791579,6.26610526 18.396,6.58294737 18.396,6.97494737 Z M11.2530526,12.8814737 C11.2906316,13.0332632 11.2965263,13.1496842 11.2722105,13.2241053 C11.2456842,13.2992632 11.1653684,13.3390526 11.0283158,13.3390526 L8.70505263,13.3390526 C8.49284211,13.3390526 8.34842105,13.2904211 8.27326316,13.1961053 C8.19810526,13.0995789 8.12957895,12.9492632 8.06768421,12.7481053 L7.46642105,10.5169474 L3.67610526,10.5169474 L3.04978947,12.8041053 C2.98642105,13.0074737 2.90610526,13.1489474 2.80589474,13.2241053 C2.70568421,13.2992632 2.56863158,13.3390526 2.39326316,13.3390526 L0.314631579,13.3390526 C0.176842105,13.3390526 0.0832631579,13.3110526 0.0338947368,13.2528421 C-0.0169473684,13.1961053 -0.0110526316,13.0597895 0.0523157895,12.8424211 L3.668,1.19147368 C3.73063158,1.01389474 3.80505263,0.876105263 3.89273684,0.779578947 C3.97894737,0.685263158 4.14768421,0.636631579 4.39894737,0.636631579 L6.75905263,0.636631579 C7.02136842,0.636631579 7.19231579,0.688947368 7.27410526,0.790631579 C7.35515789,0.892315789 7.42663158,1.03231579 7.48926316,1.20989474 L11.2530526,12.8814737 Z M6.89463158,8.39189474 L5.63315789,3.71294737 L5.54031579,3.71294737 L4.25821053,8.39189474 L6.89463158,8.39189474 Z" id="Shape"></path>
                </g>
            </g>
        </g>
    </g>
</svg>