<?xml version="1.0" encoding="UTF-8"?>
<svg width="20px" height="21px" viewBox="0 0 20 21" version="1.1" xmlns="http://www.w3.org/2000/svg" xmlns:xlink="http://www.w3.org/1999/xlink">
    <!-- Generator: Sketch 42 (36781) - http://www.bohemiancoding.com/sketch -->
    <title>Shape</title>
    <desc>Created with Sketch.</desc>
    <defs></defs>
    <g id="Symbols" stroke="none" stroke-width="1" fill="none" fill-rule="evenodd" opacity="0.297667572">
        <g id="header" transform="translate(-1121.000000, -35.000000)" fill="#1B2432">
            <path d="M1140.69591,53.8686135 L1135.76557,48.7408104 C1137.03325,47.2338523 1137.72782,45.3377907 1137.72782,43.3639083 C1137.72782,38.752122 1133.97569,35 1129.36391,35 C1124.75212,35 1121,38.752122 1121,43.3639083 C1121,47.9756946 1124.75212,51.7278166 1129.36391,51.7278166 C1131.09524,51.7278166 1132.74511,51.2056178 1134.1557,50.2143129 L1139.1235,55.3810263 C1139.33114,55.5966697 1139.61042,55.7155826 1139.90971,55.7155826 C1140.19299,55.7155826 1140.46172,55.6075791 1140.66573,55.4112091 C1141.0992,54.9941046 1141.11302,54.3024458 1140.69591,53.8686135 Z M1129.36391,37.1818891 C1132.77275,37.1818891 1135.54593,39.9550702 1135.54593,43.3639083 C1135.54593,46.7727464 1132.77275,49.5459275 1129.36391,49.5459275 C1125.95507,49.5459275 1123.18189,46.7727464 1123.18189,43.3639083 C1123.18189,39.9550702 1125.95507,37.1818891 1129.36391,37.1818891 Z" id="Shape"></path>
        </g>
    </g>
</svg>