<?xml version="1.0" encoding="UTF-8"?>
<svg width="32px" height="32px" viewBox="0 0 32 32" version="1.1" xmlns="http://www.w3.org/2000/svg" xmlns:xlink="http://www.w3.org/1999/xlink">
    <!-- Generator: Sketch 43.2 (39069) - http://www.bohemiancoding.com/sketch -->
    <title>Glyph/Course/Light</title>
    <desc>Created with Sketch.</desc>
    <defs></defs>
    <g id="Symbols" stroke="none" stroke-width="1" fill="none" fill-rule="evenodd">
        <g id="Glyph/Course/Light" fill-rule="nonzero" fill="#FFFFFF">
            <g id="course" transform="translate(6.000000, 6.000000)">
                <g id="Capa_1">
                    <g id="Group">
                        <path d="M19.3690909,1.0410101 L10.6309091,1.0410101 L10.6309091,0.630909091 C10.6309091,0.282491582 10.3484175,0 10,0 C9.65158249,0 9.36909091,0.282491582 9.36909091,0.630909091 L9.36909091,1.0410101 L0.630909091,1.0410101 C0.282491582,1.0410101 6.73400673e-05,1.32350168 6.73400673e-05,1.67191919 L6.73400673e-05,3.75393939 C6.73400673e-05,4.1023569 0.282491582,4.38484848 0.630909091,4.38484848 L1.0410101,4.38484848 L1.0410101,15.2050505 C1.0410101,15.553468 1.32350168,15.8359596 1.67191919,15.8359596 L8.73818182,15.8359596 L6.37225589,18.9905724 C6.16323232,19.2692929 6.2196633,19.6647811 6.49845118,19.8738047 C6.61191919,19.9589899 6.7447138,20 6.87649832,20 C7.06828283,20 7.25771044,19.912862 7.3816835,19.7476094 L9.36909091,17.0977778 L9.36909091,19.3690909 C9.36909091,19.7175084 9.65158249,20 10,20 C10.3484175,20 10.6309091,19.7175084 10.6309091,19.3690909 L10.6309091,17.0977778 L12.6183165,19.7476094 C12.7422896,19.912862 12.9316498,20 13.1235017,20 C13.2552862,20 13.3880808,19.9589226 13.5015488,19.8738047 C13.7803367,19.6647811 13.836835,19.2692256 13.6277441,18.9905724 L11.2618182,15.8359596 L18.3280808,15.8359596 C18.6764983,15.8359596 18.9589226,15.553468 18.9589226,15.2050505 L18.9589226,4.38484848 L19.3690909,4.38484848 C19.7175084,4.38484848 19.9999327,4.1023569 19.9999327,3.75393939 L19.9999327,1.67191919 C19.9999327,1.32350168 19.7175084,1.0410101 19.3690909,1.0410101 Z M1.26181818,3.1230303 L1.26181818,2.30282828 L18.7381145,2.30282828 L18.7381145,3.1230303 L1.26181818,3.1230303 Z M17.6971717,14.5741414 L2.30282828,14.5741414 L2.30282828,4.38484848 L17.6971044,4.38484848 L17.6971044,14.5741414 L17.6971717,14.5741414 Z" id="Shape"></path>
                        <path d="M4.79494949,9.58996633 L14.1640404,9.58996633 C14.5124579,9.58996633 14.7949495,9.30747475 14.7949495,8.95905724 C14.7949495,8.61063973 14.5124579,8.32814815 14.1640404,8.32814815 L4.79494949,8.32814815 C4.44653199,8.32814815 4.1640404,8.61063973 4.1640404,8.95905724 C4.1640404,9.30747475 4.44653199,9.58996633 4.79494949,9.58996633 Z" id="Shape"></path>
                        <path d="M4.79494949,7.50794613 L6.8769697,7.50794613 C7.22538721,7.50794613 7.50787879,7.22552189 7.50787879,6.87703704 C7.50787879,6.52861953 7.22538721,6.24612795 6.8769697,6.24612795 L4.79494949,6.24612795 C4.44653199,6.24612795 4.1640404,6.52861953 4.1640404,6.87703704 C4.1640404,7.22552189 4.44653199,7.50794613 4.79494949,7.50794613 Z" id="Shape"></path>
                        <path d="M4.79494949,11.6719192 L11.0410101,11.6719192 C11.3894276,11.6719192 11.6719192,11.3894276 11.6719192,11.0410101 C11.6719192,10.6925926 11.3894276,10.410101 11.0410101,10.410101 L4.79494949,10.410101 C4.44653199,10.410101 4.1640404,10.6925926 4.1640404,11.0410101 C4.1640404,11.3894276 4.44653199,11.6719192 4.79494949,11.6719192 Z" id="Shape"></path>
                    </g>
                </g>
            </g>
        </g>
    </g>
</svg>