<?xml version="1.0" encoding="UTF-8"?>
<svg width="32px" height="32px" viewBox="0 0 32 32" version="1.1" xmlns="http://www.w3.org/2000/svg" xmlns:xlink="http://www.w3.org/1999/xlink">
    <!-- Generator: Sketch 44.1 (41455) - http://www.bohemiancoding.com/sketch -->
    <title>Glyph/Dark/Cancel</title>
    <desc>Created with Sketch.</desc>
    <defs></defs>
    <g id="Symbols" stroke="none" stroke-width="1" fill="none" fill-rule="evenodd">
        <g id="Glyph/Dark/Cancel" fill-rule="nonzero" fill="#111926">
            <g id="Group-2" transform="translate(1.000000, 1.000000)">
                <g id="Group-3">
                    <path d="M15,5 C9.45454545,5 5,9.45454545 5,15 C5,20.5454545 9.45454545,25 15,25 C20.5454545,25 25,20.5454545 25,15 C25,9.45454545 20.5454545,5 15,5 Z M20.4545455,15.4545455 C20.4545455,15.7272727 20.2727273,15.9090909 20,15.9090909 L16.1363636,15.9090909 C16,15.9090909 15.9090909,16 15.9090909,16.1363636 L15.9090909,20 C15.9090909,20.2727273 15.7272727,20.4545455 15.4545455,20.4545455 L14.5454545,20.4545455 C14.2727273,20.4545455 14.0909091,20.2727273 14.0909091,20 L14.0909091,16.1363636 C14.0909091,16 14,15.9090909 13.8636364,15.9090909 L10,15.9090909 C9.72727273,15.9090909 9.54545455,15.7272727 9.54545455,15.4545455 L9.54545455,14.5454545 C9.54545455,14.2727273 9.72727273,14.0909091 10,14.0909091 L13.8636364,14.0909091 C14,14.0909091 14.0909091,14 14.0909091,13.8636364 L14.0909091,10 C14.0909091,9.72727273 14.2727273,9.54545455 14.5454545,9.54545455 L15.4545455,9.54545455 C15.7272727,9.54545455 15.9090909,9.72727273 15.9090909,10 L15.9090909,13.8636364 C15.9090909,14 16,14.0909091 16.1363636,14.0909091 L20,14.0909091 C20.2727273,14.0909091 20.4545455,14.2727273 20.4545455,14.5454545 L20.4545455,15.4545455 Z" id="Shape" transform="translate(15.000000, 15.000000) rotate(-45.000000) translate(-15.000000, -15.000000) "></path>
                </g>
            </g>
        </g>
    </g>
</svg>