<?xml version="1.0" encoding="UTF-8"?>
<svg width="32px" height="32px" viewBox="0 0 32 32" version="1.1" xmlns="http://www.w3.org/2000/svg" xmlns:xlink="http://www.w3.org/1999/xlink">
    <!-- Generator: Sketch 44.1 (41455) - http://www.bohemiancoding.com/sketch -->
    <title>Glyph/Dark/Deadline</title>
    <desc>Created with Sketch.</desc>
    <defs></defs>
    <g id="Symbols" stroke="none" stroke-width="1" fill="none" fill-rule="evenodd">
        <g id="Glyph/Dark/Deadline" fill-rule="nonzero" fill="#000000">
            <g id="chronometer" transform="translate(5.000000, 8.000000)">
                <path d="M20.7151639,5.08459517 C20.8729508,5.2441126 21.1254098,5.2441126 21.2786885,5.08459517 L21.8422131,4.51489008 C22,4.35537265 22,4.10014477 21.8422131,3.94518499 L20.5663934,2.65537265 C20.4086066,2.49585523 20.1561475,2.49585523 20.0028689,2.65537265 L19.4393443,3.22507775 C19.2815574,3.38459517 19.2815574,3.63982306 19.4393443,3.79478284 L19.4934426,3.84947453 L19.0967213,4.25054692 C18.0959016,3.44840214 16.8831967,2.91515818 15.5532787,2.76019839 L15.5532787,2.03097587 L15.9905738,2.03097587 C16.2114754,2.03097587 16.3872951,1.84867024 16.3872951,1.62990349 L16.3872951,0.44491689 C16.3872951,0.221592493 16.2069672,0.043844504 15.9905738,0.043844504 L13.4569672,0.043844504 C13.2360656,0.043844504 13.0602459,0.226150134 13.0602459,0.44491689 L13.0602459,1.62990349 C13.0602459,1.85322788 13.2405738,2.03097587 13.4569672,2.03097587 L13.8942623,2.03097587 L13.8942623,2.76019839 C12.5643443,2.91971582 11.3471311,3.45295979 10.3508197,4.25054692 L9.95409836,3.84947453 L10.0081967,3.79478284 C10.1659836,3.63526542 10.1659836,3.38003753 10.0081967,3.22507775 L9.44467213,2.65537265 C9.28688525,2.49585523 9.03442623,2.49585523 8.88114754,2.65537265 L7.60532787,3.94518499 C7.44754098,4.10470241 7.44754098,4.35993029 7.60532787,4.51489008 L8.16885246,5.08459517 C8.32663934,5.2441126 8.57909836,5.2441126 8.73237705,5.08459517 L8.78647541,5.02990349 L9.18319672,5.43097587 C8.23647541,6.64330831 7.67295082,8.1746756 7.67295082,9.83365684 C7.67295082,13.7623432 10.8377049,16.961807 14.7237705,16.961807 C18.6098361,16.961807 21.7745902,13.7623432 21.7745902,9.83365684 C21.7745902,8.1746756 21.2065574,6.64330831 20.2643443,5.43097587 L20.6610656,5.02990349 L20.7151639,5.08459517 Z M14.7237705,15.311941 C11.7393443,15.311941 9.30942623,12.8553727 9.30942623,9.83821448 C9.30942623,6.8210563 11.7393443,4.36448794 14.7237705,4.36448794 C17.7081967,4.36448794 20.1381148,6.8210563 20.1381148,9.83821448 C20.1381148,12.8553727 17.7081967,15.311941 14.7237705,15.311941 Z" id="Shape"></path>
                <path d="M2.86270492,11.7479115 C2.475,11.7479115 2.16393443,12.0669464 2.16393443,12.4543458 C2.16393443,12.8463029 2.4795082,13.1607802 2.86270492,13.1607802 L6.65409836,13.1607802 C6.7307377,13.1607802 6.79836066,13.1471072 6.86598361,13.124319 C6.68565574,12.6822279 6.53688525,12.2219062 6.43319672,11.7433539 L2.86270492,11.7433539 L2.86270492,11.7479115 Z" id="Shape"></path>
                <path d="M6.86147541,6.56127078 C6.79836066,6.54304021 6.72622951,6.52480965 6.65409836,6.52480965 L0.698770492,6.52480965 C0.311065574,6.52480965 0,6.8438445 0,7.23124397 C0,7.62320107 0.31557377,7.93767828 0.698770492,7.93767828 L6.42868852,7.93767828 C6.53237705,7.47279893 6.67663934,7.00791957 6.86147541,6.56127078 Z" id="Shape"></path>
                <path d="M6.22131148,9.83821448 C6.22131148,9.60121716 6.23483607,9.36877748 6.25286885,9.1363378 L1.67254098,9.1363378 C1.28483607,9.1363378 0.973770492,9.45537265 0.973770492,9.84277212 C0.973770492,10.2301716 1.28934426,10.5492064 1.67254098,10.5492064 L6.24836066,10.5492064 C6.23483607,10.3167668 6.22131148,10.079815 6.22131148,9.83821448 Z" id="Shape"></path>
                <path d="M18.127459,7.80099464 C18.0102459,7.60501609 17.7668033,7.52753619 17.5639344,7.63236193 L15.125,8.84013673 C14.8229508,8.71708043 14.4713115,8.73075335 14.1692623,8.90850134 C13.6598361,9.21386327 13.4885246,9.87927882 13.7905738,10.3942922 C14.092623,10.9093056 14.7508197,11.082496 15.2602459,10.777134 C15.5622951,10.5948284 15.742623,10.2894665 15.7786885,9.96587399 L18.0012295,8.38437265 C18.1905738,8.2521555 18.2446721,8.00148525 18.127459,7.80099464 Z M15.1745902,9.95671314 C15.1069672,10.211941 14.85,10.3623432 14.6020492,10.2985362 C14.3495902,10.2301716 14.2008197,9.97038606 14.2639344,9.71971582 C14.3315574,9.46448794 14.5885246,9.31408579 14.8364754,9.37789276 C15.0889344,9.44174531 15.2377049,9.7060429 15.1745902,9.95671314 Z" id="Shape"></path>
                <path d="M16.247541,7.12186059 C16.4594262,7.24491689 16.729918,7.167437 16.8471311,6.95322788 C16.9688525,6.73901877 16.8922131,6.46556032 16.6803279,6.34706166 C16.4684426,6.22400536 16.202459,6.30148525 16.0807377,6.51569437 C15.9995902,6.66153887 16.0086066,6.83017158 16.0852459,6.96234316 C16.1258197,7.02159249 16.179918,7.0808874 16.247541,7.12186059 Z" id="Shape"></path>
                <path d="M14.6967213,6.71167292 C14.9401639,6.71167292 15.1340164,6.51113673 15.1340164,6.26502413 C15.1340164,6.01891153 14.9356557,5.82293298 14.6922131,5.82293298 C14.4487705,5.82293298 14.254918,6.02346917 14.254918,6.26958177 C14.254918,6.3516193 14.277459,6.4290992 14.3135246,6.49290617 C14.3901639,6.62512332 14.5344262,6.71627614 14.6967213,6.71167292 Z" id="Shape"></path>
                <path d="M14.7553279,12.9739169 L14.7553279,12.9739169 C14.5118852,12.9784745 14.3180328,13.1790107 14.3180328,13.4251233 C14.3180328,13.5071609 14.3405738,13.5800831 14.3766393,13.6438901 C14.4532787,13.7760617 14.597541,13.8672145 14.7598361,13.8626568 C15.0032787,13.8580992 15.1971311,13.657563 15.192623,13.4114504 C15.1971311,13.1744075 14.9987705,12.9739169 14.7553279,12.9739169 Z" id="Shape"></path>
                <path d="M16.2971311,12.540941 C16.0897541,12.6639973 16.017623,12.9374558 16.1438525,13.1471072 L16.1438525,13.1471072 C16.2655738,13.3613164 16.5360656,13.429681 16.7479508,13.302067 C16.9553279,13.1790107 17.027459,12.9055523 16.9012295,12.6959008 C16.775,12.4862038 16.5045082,12.4178391 16.2971311,12.540941 Z" id="Shape"></path>
                <path d="M18.0192623,11.2192252 C17.807377,11.1007265 17.5368852,11.1736488 17.4196721,11.3878579 C17.3385246,11.5337024 17.347541,11.6977775 17.4241803,11.8345067 C17.4602459,11.8983137 17.5188525,11.957563 17.5864754,11.9940241 C17.7983607,12.1170804 18.0688525,12.0396005 18.1860656,11.8253914 C18.3032787,11.6111823 18.2311475,11.3377239 18.0192623,11.2192252 Z" id="Shape"></path>
                <path d="M11.6221311,9.87927882 C11.6221311,9.63316622 11.4192623,9.43718767 11.1803279,9.43718767 C10.9368852,9.44174531 10.7430328,9.6422815 10.7430328,9.8883941 C10.7430328,9.97043164 10.7655738,10.0433539 10.8016393,10.1071609 C10.8782787,10.2393324 11.022541,10.3304853 11.1848361,10.3259276 C11.4327869,10.325882 11.6266393,10.1253914 11.6221311,9.87927882 Z" id="Shape"></path>
                <path d="M11.4553279,11.2829866 C11.2479508,11.4060429 11.1758197,11.6795013 11.3020492,11.8891528 L11.3020492,11.8891528 C11.4237705,12.0988043 11.6942623,12.1717265 11.9061475,12.0441126 C12.1135246,11.9210563 12.1811475,11.6475979 12.0594262,11.4333887 C11.9331967,11.2282949 11.6627049,11.1554182 11.4553279,11.2829866 Z" id="Shape"></path>
                <path d="M17.8209016,9.81542627 C17.8209016,9.89746381 17.8434426,9.97038606 17.8840164,10.0387507 C17.9606557,10.1709223 18.104918,10.2575174 18.2672131,10.2575174 C18.5106557,10.2575174 18.7045082,10.0524236 18.7045082,9.81086863 C18.7045082,9.56475603 18.5061475,9.36877748 18.2627049,9.36877748 C18.0147541,9.36877748 17.8163934,9.57387131 17.8209016,9.81542627 Z" id="Shape"></path>
                <path d="M11.4237705,8.48003753 C11.6356557,8.60309383 11.9061475,8.52561394 12.0233607,8.31140483 L12.0233607,8.31140483 C12.1405738,8.09719571 12.0684426,7.82829491 11.8520492,7.70523861 C11.6401639,7.58673995 11.3741803,7.6596622 11.252459,7.87387131 C11.1758197,8.01515818 11.1803279,8.18379088 11.2569672,8.32052011 C11.297541,8.38432708 11.3516393,8.43906434 11.4237705,8.48003753 Z" id="Shape"></path>
                <path d="M13.1413934,7.15376408 C13.1413934,7.15376408 13.1459016,7.15376408 13.1459016,7.14920643 C13.1504098,7.14920643 13.1504098,7.14920643 13.1504098,7.14464879 C13.1504098,7.14464879 13.1504098,7.14464879 13.154918,7.14464879 C13.3622951,7.02159249 13.429918,6.74813405 13.3081967,6.53848257 C13.1864754,6.32427346 12.9159836,6.25590885 12.7040984,6.37896515 C12.7040984,6.37896515 12.6995902,6.37896515 12.6995902,6.38352279 C12.695082,6.38352279 12.695082,6.38808043 12.6905738,6.38808043 C12.4831967,6.51113673 12.4110656,6.78459517 12.5372951,6.99424665 L12.5372951,6.99424665 C12.6635246,7.20850134 12.9340164,7.27686595 13.1413934,7.15376408 Z" id="Shape"></path>
                <path d="M13.2,12.5727989 C12.9881148,12.4497426 12.717623,12.5272225 12.6004098,12.7414316 C12.5192623,12.8872761 12.5282787,13.0559088 12.604918,13.1880804 C12.6409836,13.2518874 12.6995902,13.3111367 12.7672131,13.3521555 C12.9790984,13.4706542 13.2495902,13.3931743 13.3668033,13.1835228 C13.4885246,12.964756 13.4118852,12.6958552 13.2,12.5727989 Z" id="Shape"></path>
            </g>
        </g>
    </g>
</svg>