<?xml version="1.0" encoding="UTF-8"?>
<svg width="32px" height="32px" viewBox="0 0 32 32" version="1.1" xmlns="http://www.w3.org/2000/svg" xmlns:xlink="http://www.w3.org/1999/xlink">
    <!-- Generator: Sketch 44.1 (41455) - http://www.bohemiancoding.com/sketch -->
    <title>Glyph/Dark/Inspiration</title>
    <desc>Created with Sketch.</desc>
    <defs></defs>
    <g id="Symbols" stroke="none" stroke-width="1" fill="none" fill-rule="evenodd">
        <g id="Glyph/Dark/Inspiration" fill-rule="nonzero" fill="#111926">
            <g id="Group-2" transform="translate(5.000000, 5.000000)">
                <path d="M11.0011839,5.1743 C7.77823318,5.1743 5.15608969,7.8322 5.15608969,11.0991 C5.15608969,12.4361 5.58859193,13.6994 6.40624215,14.7518 C6.56764126,14.9601 6.7372287,15.1595 6.91678027,15.3706 L6.92664574,15.3822 C7.47595516,16.0282 8.04391031,16.6964 8.25601794,17.4832 C8.30396413,17.6635 8.3107713,18.0092 8.30800897,18.2755 L8.30800897,18.7281 C8.30800897,19.1423 8.63929148,19.4781 9.04791928,19.4781 L12.922287,19.4781 C13.3309148,19.4781 13.6621973,19.1423 13.6621973,18.7281 L13.6621973,18.2702 C13.6597309,17.9224 13.6774888,17.6686 13.7133004,17.5369 C13.9265919,16.7553 14.556009,16.0048 15.1163677,15.3368 L15.1405381,15.308 C15.3022332,15.1154 15.4550493,14.9335 15.5941525,14.7542 C16.4129865,13.7012 16.8457848,12.4373 16.8457848,11.0991 C16.8456861,7.8322 14.2238386,5.1743 11.0011839,5.1743 Z M14.4313094,13.8264 C14.3094709,13.9835 14.1658296,14.1546 14.013704,14.3357 L13.9839103,14.3712 C13.3293363,15.1516 12.5874529,16.0361 12.2867534,17.1379 C12.2442332,17.2943 12.1969776,17.5283 12.1849417,17.9781 L9.78644843,17.9781 C9.77618834,17.5004 9.7281435,17.2554 9.68424215,17.0904 C9.38334529,15.974 8.64274439,15.1029 8.04756054,14.4028 L8.03759641,14.391 C7.86939013,14.1933 7.71055605,14.0065 7.56938117,13.8245 C6.95870852,13.0385 6.63591031,12.096 6.63591031,11.0991 C6.63591031,8.6593 8.59420628,6.6743 11.0011839,6.6743 C13.4078655,6.6743 15.3658655,8.6593 15.3658655,11.0991 C15.3658655,12.0971 15.04287,13.0399 14.4313094,13.8264 Z" id="Shape"></path>
                <path d="M12.9221883,19.691 L9.04791928,19.691 C8.63929148,19.691 8.30800897,20.0268 8.30800897,20.441 C8.30800897,20.8552 8.63929148,21.191 9.04791928,21.191 L12.922287,21.191 C13.3309148,21.191 13.6621973,20.8552 13.6621973,20.441 C13.6621973,20.0268 13.3308161,19.691 12.9221883,19.691 Z" id="Shape"></path>
                <path d="M11.9535964,21.4018 L10.0165112,21.4018 C9.60788341,21.4018 9.2766009,21.7376 9.2766009,22.1518 C9.2766009,22.566 9.60788341,22.9018 10.0165112,22.9018 L11.9535964,22.9018 C12.3622242,22.9018 12.6935067,22.566 12.6935067,22.1518 C12.6935067,21.7376 12.3622242,21.4018 11.9535964,21.4018 Z" id="Shape"></path>
                <path d="M21.2107623,10.3491 L18.6582691,10.3491 C18.2496413,10.3491 17.9183587,10.6849 17.9183587,11.0991 C17.9183587,11.5133 18.2496413,11.8491 18.6582691,11.8491 L21.2107623,11.8491 C21.6193901,11.8491 21.9506726,11.5133 21.9506726,11.0991 C21.9506726,10.6849 21.6193901,10.3491 21.2107623,10.3491 Z" id="Shape"></path>
                <path d="M4.083713,11.0991 C4.083713,10.6849 3.75243049,10.3491 3.34380269,10.3491 L0.791013453,10.3491 C0.38238565,10.3491 0.051103139,10.6849 0.051103139,11.0991 C0.051103139,11.5133 0.38238565,11.8491 0.791013453,11.8491 L3.34380269,11.8491 C3.75243049,11.8491 4.083713,11.5133 4.083713,11.0991 Z" id="Shape"></path>
                <path d="M11.0009865,4.0881 C11.4096143,4.0881 11.7408969,3.7523 11.7408969,3.3381 L11.7408969,0.75 C11.7408969,0.3358 11.4096143,0 11.0009865,0 C10.5923587,0 10.2610762,0.3358 10.2610762,0.75 L10.2610762,3.3381 C10.2610762,3.7523 10.5923587,4.0881 11.0009865,4.0881 Z" id="Shape"></path>
                <path d="M16.9383229,16.0569 C16.6493632,15.764 16.1809507,15.7639 15.8918924,16.0568 C15.6029327,16.3497 15.6028341,16.8245 15.8917937,17.1175 L17.6967803,18.9476 C17.8413094,19.0941 18.0306278,19.1673 18.2200448,19.1673 C18.4093632,19.1673 18.5986816,19.0941 18.7432108,18.9477 C19.0321704,18.6548 19.0322691,18.18 18.7433094,17.887 L16.9383229,16.0569 Z" id="Shape"></path>
                <path d="M5.06266368,6.1408 C5.20719283,6.2873 5.39651121,6.3606 5.58592825,6.3606 C5.77524664,6.3606 5.96456502,6.2874 6.10899552,6.141 C6.39805381,5.8481 6.39805381,5.3733 6.10919283,5.0804 L4.30489686,3.2508 C4.01593722,2.9578 3.54752466,2.9578 3.25856502,3.2506 C2.96950673,3.5435 2.96950673,4.0183 3.25836771,4.3112 L5.06266368,6.1408 Z" id="Shape"></path>
                <path d="M5.06345291,16.0569 L3.25836771,17.887 C2.96940807,18.1799 2.96950673,18.6548 3.25846637,18.9476 C3.40289686,19.094 3.5923139,19.1672 3.78163229,19.1672 C3.97095067,19.1672 4.16036771,19.094 4.30489686,18.9475 L6.10998206,17.1174 C6.3989417,16.8245 6.39884305,16.3496 6.10988341,16.0568 C5.82092377,15.764 5.35241256,15.764 5.06345291,16.0569 Z" id="Shape"></path>
                <path d="M16.4154529,6.3605 C16.6047713,6.3605 16.7941883,6.2873 16.9387175,6.1408 L18.7433094,4.3113 C19.0322691,4.0184 19.0321704,3.5435 18.7432108,3.2507 C18.4542511,2.9578 17.9857399,2.9578 17.6968789,3.2508 L15.892287,5.0803 C15.6033274,5.3732 15.603426,5.8481 15.8923857,6.1409 C16.0367175,6.2874 16.2260359,6.3605 16.4154529,6.3605 Z" id="Shape"></path>
            </g>
        </g>
    </g>
</svg>