<?xml version="1.0" encoding="UTF-8"?>
<svg width="32px" height="32px" viewBox="0 0 32 32" version="1.1" xmlns="http://www.w3.org/2000/svg" xmlns:xlink="http://www.w3.org/1999/xlink">
    <!-- Generator: Sketch 44.1 (41455) - http://www.bohemiancoding.com/sketch -->
    <title>Glyph/Dark/Score</title>
    <desc>Created with Sketch.</desc>
    <defs></defs>
    <g id="Symbols" stroke="none" stroke-width="1" fill="none" fill-rule="evenodd">
        <g id="Glyph/Dark/Score" fill="#1B2432">
            <g id="Group-3" transform="translate(6.000000, 9.000000)">
                <path d="M21,7.4847729 L21,8.32095829 C21,8.78386217 20.6383122,9.15714369 20.1916698,9.15714369 L18.5741684,9.15714369 L18.5741684,10.8303846 C18.5741684,11.2932885 18.2124806,11.66657 17.7658383,11.66657 L16.9575081,11.66657 C16.5100246,11.66657 16.149178,11.2924184 16.149178,10.8303846 L16.149178,9.15714369 L14.5316765,9.15714369 C14.084193,9.15714369 13.7233464,8.78299205 13.7233464,8.32095829 L13.7233464,7.4847729 C13.7233464,7.02186902 14.0850342,6.64858751 14.5316765,6.64858751 L16.149178,6.64858751 L16.149178,4.9753466 C16.149178,4.51244272 16.5108657,4.1391612 16.9575081,4.1391612 L17.7658383,4.1391612 C18.2133218,4.1391612 18.5741684,4.51331284 18.5741684,4.9753466 L18.5741684,6.64858751 L20.1916698,6.64858751 C20.6383122,6.64771738 21,7.02186902 21,7.4847729 Z M12.8460432,14.4596554 C12.888941,14.6389002 12.8956701,14.7763791 12.8679127,14.8642613 C12.8376318,14.9530135 12.7459482,15 12.5894972,15 L9.93740046,15 C9.69515375,15 9.53029141,14.9425721 9.4444957,14.8311967 C9.35869999,14.717211 9.28047449,14.5397065 9.20981921,14.3021637 L8.52345354,11.6674401 L4.19665822,11.6674401 L3.48169399,14.3682928 C3.40935643,14.608446 3.31767278,14.775509 3.2032785,14.8642613 C3.08888422,14.9530135 2.93243323,15 2.73224324,15 L0.359403117,15 C0.202110985,15 0.0952869174,14.9669354 0.0389309131,14.898196 C-0.0191073601,14.8311967 -0.012378285,14.6702245 0.0599592729,14.4135391 L4.18740574,0.655200418 C4.25890217,0.445501479 4.34385674,0.282789025 4.44395173,0.168803295 C4.54236446,0.0574279251 4.73498423,0 5.02181106,0 L7.71596452,0 C8.01540837,0 8.21055155,0.0617785254 8.30391746,0.181855096 C8.39644225,0.301931667 8.47803228,0.467254481 8.54952871,0.67695342 L12.8460432,14.4596554 Z M7.87073325,9.15801381 L6.43071117,3.63275132 L6.32472824,3.63275132 L4.86115439,9.15801381 L7.87073325,9.15801381 Z" id="Shape"></path>
            </g>
        </g>
    </g>
</svg>