<?xml version="1.0" encoding="UTF-8"?>
<svg width="32px" height="32px" viewBox="0 0 32 32" version="1.1" xmlns="http://www.w3.org/2000/svg" xmlns:xlink="http://www.w3.org/1999/xlink">
    <!-- Generator: Sketch 44.1 (41455) - http://www.bohemiancoding.com/sketch -->
    <title>Glyph/Dark/Tasks</title>
    <desc>Created with Sketch.</desc>
    <defs></defs>
    <g id="Symbols" stroke="none" stroke-width="1" fill="none" fill-rule="evenodd">
        <g id="Glyph/Dark/Tasks" fill="#111926">
            <g id="Group-2" transform="translate(6.000000, 7.000000)">
                <path d="M19.9505155,0.936842105 L7.48865979,0.936842105 C7.46391753,0.936842105 7.43917526,0.957894737 7.43917526,0.987368421 L7.43917526,2.17894737 C7.43917526,2.20421053 7.45979381,2.22947368 7.48865979,2.22947368 L19.9505155,2.22947368 C19.9752577,2.22947368 20,2.20842105 20,2.17894737 L20,0.987368421 C20,0.957894737 19.9793814,0.936842105 19.9505155,0.936842105 Z" id="Shape"></path>
                <ellipse id="Oval" cx="2.94845361" cy="9.65684211" rx="1.5628866" ry="1.59578947"></ellipse>
                <ellipse id="Oval" cx="2.94845361" cy="16.6547368" rx="1.57113402" ry="1.60421053"></ellipse>
                <path d="M7.48865979,4.38526316 L13.3773196,4.38526316 C13.4020619,4.38526316 13.4268041,4.36421053 13.4268041,4.33473684 L13.4268041,3.14315789 C13.4268041,3.11789474 13.4061856,3.09263158 13.3773196,3.09263158 L7.48865979,3.09263158 C7.46391753,3.09263158 7.43917526,3.11368421 7.43917526,3.14315789 L7.43917526,4.33473684 C7.44329897,4.36421053 7.46391753,4.38526316 7.48865979,4.38526316 Z" id="Shape"></path>
                <path d="M19.9505155,7.93473684 L7.48865979,7.93473684 C7.46391753,7.93473684 7.43917526,7.95578947 7.43917526,7.98526316 L7.43917526,9.17684211 C7.43917526,9.20210526 7.45979381,9.22736842 7.48865979,9.22736842 L19.9505155,9.22736842 C19.9752577,9.22736842 20,9.20631579 20,9.17684211 L20,7.98526316 C20,7.95578947 19.9793814,7.93473684 19.9505155,7.93473684 Z" id="Shape"></path>
                <path d="M7.48865979,11.3831579 L13.3773196,11.3831579 C13.4020619,11.3831579 13.4268041,11.3621053 13.4268041,11.3326316 L13.4268041,10.1410526 C13.4268041,10.1157895 13.4061856,10.0905263 13.3773196,10.0905263 L7.48865979,10.0905263 C7.46391753,10.0905263 7.43917526,10.1115789 7.43917526,10.1410526 L7.43917526,11.3326316 C7.44329897,11.3578947 7.46391753,11.3831579 7.48865979,11.3831579 Z" id="Shape"></path>
                <path d="M19.9505155,14.9284211 L7.48865979,14.9284211 C7.46391753,14.9284211 7.43917526,14.9494737 7.43917526,14.9789474 L7.43917526,16.1705263 C7.43917526,16.1957895 7.45979381,16.2210526 7.48865979,16.2210526 L19.9505155,16.2210526 C19.9752577,16.2210526 20,16.2 20,16.1705263 L20,14.9789474 C20,14.9494737 19.9793814,14.9284211 19.9505155,14.9284211 Z" id="Shape"></path>
                <path d="M13.3773196,17.0884211 L7.48865979,17.0884211 C7.46391753,17.0884211 7.43917526,17.1094737 7.43917526,17.1389474 L7.43917526,18.3305263 C7.43917526,18.3557895 7.45979381,18.3810526 7.48865979,18.3810526 L13.3773196,18.3810526 C13.4020619,18.3810526 13.4268041,18.36 13.4268041,18.3305263 L13.4268041,17.1389474 C13.4268041,17.1094737 13.4061856,17.0884211 13.3773196,17.0884211 Z" id="Shape"></path>
                <polygon id="Shape" points="2.20206186 2.63368421 1.1257732 1.52631579 0 2.67157895 1.08041237 3.77473684 2.19793814 4.92421053 3.31958763 3.78315789 5.89690722 1.16842105 4.77938144 0.0189473684"></polygon>
            </g>
        </g>
    </g>
</svg>