<?xml version="1.0" encoding="UTF-8"?>
<svg width="32px" height="32px" viewBox="0 0 32 32" version="1.1" xmlns="http://www.w3.org/2000/svg" xmlns:xlink="http://www.w3.org/1999/xlink">
    <!-- Generator: Sketch 43.2 (39069) - http://www.bohemiancoding.com/sketch -->
    <title>Glyph/Document</title>
    <desc>Created with Sketch.</desc>
    <defs></defs>
    <g id="Symbols" stroke="none" stroke-width="1" fill="none" fill-rule="evenodd">
        <g id="Glyph/Document" fill-rule="nonzero" fill="#000000">
            <g id="Group-2" transform="translate(7.000000, 6.000000)">
                <g id="file-(1)">
                    <path d="M0.798428625,19.9145299 L16.3592929,19.9145299 C16.7500133,19.9145299 17.0557944,19.6068376 17.0557944,19.2136752 L17.0557944,0.769230769 C17.0557944,0.376068376 16.7500133,0.0683760684 16.3592929,0.0683760684 L4.68864469,0.0683760684 C4.63768116,0.0683760684 4.56972979,0.0683760684 4.51876626,0.0854700855 C4.50177841,0.0854700855 4.48479057,0.102564103 4.48479057,0.102564103 C4.43382704,0.11965812 4.39985136,0.136752137 4.34888783,0.153846154 C4.33189998,0.170940171 4.31491214,0.170940171 4.2979243,0.188034188 C4.24696077,0.222222222 4.19599724,0.256410256 4.16202155,0.307692308 L0.271805489,4.92307692 C0.22084196,4.97435897 0.186866274,5.04273504 0.152890588,5.11111111 C0.135902745,5.12820513 0.135902745,5.16239316 0.135902745,5.17948718 C0.118914902,5.23076923 0.118914902,5.28205128 0.101927058,5.33333333 L0.101927058,5.36752137 L0.101927058,19.1965812 C0.101927058,19.6068376 0.424696077,19.9145299 0.798428625,19.9145299 L0.798428625,19.9145299 Z M3.99214312,2.68376068 L3.99214312,4.7008547 L2.29335882,4.7008547 L3.99214312,2.68376068 L3.99214312,2.68376068 Z M1.49493019,6.08547009 L4.68864469,6.08547009 C5.07936508,6.08547009 5.38514625,5.77777778 5.38514625,5.38461538 L5.38514625,1.47008547 L15.6627913,1.47008547 L15.6627913,18.5128205 L1.49493019,18.5128205 L1.49493019,6.08547009 L1.49493019,6.08547009 Z" id="Shape"></path>
                    <path d="M13.5902745,7.60683761 L3.56744705,7.60683761 C3.17672665,7.60683761 2.87094548,7.91452991 2.87094548,8.30769231 C2.87094548,8.7008547 3.17672665,9.00854701 3.56744705,9.00854701 L13.5902745,9.00854701 C13.9809949,9.00854701 14.286776,8.7008547 14.286776,8.30769231 C14.286776,7.91452991 13.9809949,7.60683761 13.5902745,7.60683761 Z" id="Shape"></path>
                    <path d="M13.5902745,10.991453 L3.56744705,10.991453 C3.17672665,10.991453 2.87094548,11.2991453 2.87094548,11.6923077 C2.87094548,12.0854701 3.17672665,12.3931624 3.56744705,12.3931624 L13.5902745,12.3931624 C13.9809949,12.3931624 14.286776,12.0854701 14.286776,11.6923077 C14.286776,11.3162393 13.9809949,10.991453 13.5902745,10.991453 Z" id="Shape"></path>
                </g>
            </g>
        </g>
    </g>
</svg>