<?xml version="1.0" encoding="UTF-8"?>
<svg width="32px" height="32px" viewBox="0 0 32 32" version="1.1" xmlns="http://www.w3.org/2000/svg" xmlns:xlink="http://www.w3.org/1999/xlink">
    <!-- Generator: Sketch 43.2 (39069) - http://www.bohemiancoding.com/sketch -->
    <title>Glyph/Group</title>
    <desc>Created with Sketch.</desc>
    <defs></defs>
    <g id="Symbols" stroke="none" stroke-width="1" fill="none" fill-rule="evenodd">
        <g id="Glyph/Group" fill-rule="nonzero" fill="#FFFFFF">
            <g id="team" transform="translate(6.000000, 7.000000)">
                <g id="Layer_1">
                    <path d="M18.2130994,11.5625385 C18.2046784,11.5577308 18.1960624,11.5532692 18.1876023,11.5486154 C18.2073294,11.3197308 18.2179727,11.0883077 18.2179727,10.8544615 C18.2179727,7.60507692 16.2745419,4.7955 13.4744639,3.49630769 C13.4745029,3.48642308 13.4752047,3.47665385 13.4752047,3.46669231 C13.4752047,1.56261538 11.9106043,0.0190769231 9.98054581,0.0190769231 C8.05048733,0.0190769231 6.48588694,1.56261538 6.48588694,3.46669231 C6.48588694,3.47657692 6.48658869,3.48634615 6.48662768,3.49630769 C3.68651072,4.79553846 1.74307992,7.60511538 1.74307992,10.8544615 C1.74307992,11.0883077 1.7537232,11.3196538 1.77345029,11.5485 C1.76495127,11.5533077 1.75633528,11.5577692 1.74783626,11.5625385 C0.0764522417,12.5145769 -0.49625731,14.6231538 0.46877193,16.2720769 C1.11610136,17.3781154 2.29072125,17.9964615 3.4985575,17.9964615 C4.09134503,17.9964615 4.6922807,17.8474615 5.24261209,17.534 C5.2520078,17.5286154 5.26093567,17.5227308 5.27025341,17.5173077 C6.60604288,18.4391923 8.2302924,18.9809615 9.98062378,18.9809615 C11.7309162,18.9809615 13.3551267,18.4391923 14.6909162,17.5173462 C14.7002729,17.5227692 14.7091228,17.5286154 14.7185185,17.534 C15.2688889,17.8475 15.8697076,17.9965385 16.4626121,17.9965385 C17.6703314,17.9965385 18.8450682,17.3781154 19.4923197,16.2721538 C20.457271,14.6231923 19.8846394,12.5145769 18.2130994,11.5625385 Z M9.98054581,1.49661538 C11.0816764,1.49661538 11.9775049,2.38034615 11.9775049,3.46669231 C11.9775049,4.55303846 11.0816764,5.43676923 9.98054581,5.43676923 C8.8794152,5.43676923 7.98358674,4.55303846 7.98358674,3.46669231 C7.98362573,2.38034615 8.87945419,1.49661538 9.98054581,1.49661538 Z M5.42417154,15.0581923 C5.28608187,15.5664615 4.95567251,15.9913846 4.49368421,16.2544615 C4.18994152,16.4275 3.84580897,16.5189615 3.4985575,16.5189615 C2.78553606,16.5189615 2.12159844,16.1413077 1.76580897,15.5333462 C1.21524366,14.5925769 1.54315789,13.3853462 2.49680312,12.8421538 C2.80054581,12.6690769 3.14471735,12.5776538 3.49196881,12.5776538 L3.49212476,12.5776538 C4.20499025,12.5776538 4.86888889,12.9553077 5.22467836,13.5632692 C5.49138402,14.0189615 5.56222222,14.5498462 5.42417154,15.0581923 Z M13.5702144,16.4793462 C12.5302144,17.1275769 11.2991423,17.5034231 9.9805848,17.5034231 C8.66194932,17.5034231 7.43083821,17.1275769 6.39079922,16.4793462 C7.11500975,15.4207308 7.21247563,14.0048846 6.5217154,12.8244615 C5.87446394,11.7184615 4.69984405,11.1000769 3.49208577,11.1000769 L3.49192982,11.1000769 C3.41009747,11.1000769 3.32818713,11.1031923 3.24619883,11.1089231 C3.24296296,11.0244231 3.24081871,10.9396538 3.24081871,10.8544231 C3.24081871,8.30738462 4.70023392,6.09069231 6.83723197,4.97434615 C7.40424951,6.12273077 8.59859649,6.91426923 9.98054581,6.91426923 C11.3624951,6.91426923 12.5568031,6.12280769 13.1238596,4.97434615 C15.2608577,6.09069231 16.7202729,8.30734615 16.7202729,10.8544231 C16.7202729,10.9396154 16.7181287,11.0243846 16.7148928,11.1088462 C16.6330214,11.1031923 16.5511501,11.1000385 16.4694347,11.1000385 L16.4691228,11.1000385 C15.2614035,11.1000769 14.0865497,11.7185 13.4393372,12.8245 C12.748538,14.0049615 12.8460429,15.4207692 13.5702144,16.4793462 Z M18.1952047,15.5333462 C17.8394152,16.1413077 17.1755166,16.5189615 16.4624951,16.5189615 C16.1152437,16.5189615 15.7711111,16.4275 15.4672515,16.2544231 C14.5136452,15.7112692 14.18577,14.504 14.7363353,13.5632692 C15.0920858,12.9553077 15.7560624,12.5776538 16.4690838,12.5775769 L16.4693957,12.5775769 C16.8164522,12.5775769 17.1605068,12.669 17.4642885,12.8420769 C18.4179337,13.3852308 18.74577,14.5925385 18.1952047,15.5333462 Z" id="Shape"></path>
                </g>
            </g>
        </g>
    </g>
</svg>