<?xml version="1.0" encoding="UTF-8"?>
<svg width="32px" height="32px" viewBox="0 0 32 32" version="1.1" xmlns="http://www.w3.org/2000/svg" xmlns:xlink="http://www.w3.org/1999/xlink">
    <!-- Generator: Sketch 43.2 (39069) - http://www.bohemiancoding.com/sketch -->
    <title>Glyph/News</title>
    <desc>Created with Sketch.</desc>
    <defs></defs>
    <g id="Symbols" stroke="none" stroke-width="1" fill="none" fill-rule="evenodd">
        <g id="Glyph/News" fill-rule="nonzero" fill="#111926">
            <path d="M24.5529297,12.894589 L24.1983984,12.894589 L24.1983984,7.03061644 L23.2332812,7.84258904 C20.65875,10.0086301 18.0067578,11.3107945 16.2353906,12.0217945 C15.1428125,12.4602877 14.2416406,12.7341507 13.6633594,12.8896575 L13.6633594,12.3946164 L7.58429687,12.3946164 L7.58429687,13.5057671 L6,13.5057671 L6,18.1169726 L7.58429687,18.1169726 L7.58429687,19.2281233 L8.90769531,19.2281233 L10.0959375,24.9694247 L13.786875,24.9694247 L12.5986328,19.2281233 L13.6633203,19.2281233 L13.6633203,18.7330822 C14.2416016,18.888589 15.1427734,19.1623699 16.2353516,19.6009452 C18.0067187,20.3119041 20.6587109,21.6141507 23.2332422,23.7801507 L24.1983594,24.5921233 L24.1983594,18.7279863 L24.5528906,18.7279863 C25.3507812,18.7279863 25.9999609,18.0450548 25.9999609,17.205589 L25.9999609,14.4169041 C26,13.5775205 25.3508203,12.894589 24.5529297,12.894589 Z M7.58429687,16.8668767 L7.18816406,16.8668767 L7.18816406,14.7556986 L7.58429687,14.7556986 L7.58429687,16.8668767 Z M11.0532813,23.7192877 L10.12375,19.228 L11.3826563,19.228 L12.3121484,23.7192877 L11.0532813,23.7192877 Z M12.4751563,17.9484795 L12.4751563,17.9779863 L12.3398828,17.9779863 L8.77246094,17.9779863 L8.77246094,13.644589 L12.4751563,13.644589 L12.4751563,17.9484795 Z M23.0101953,12.894589 L23.0101953,18.7280274 L23.0101953,22.0312329 C20.6219922,20.2125342 18.2655469,19.0754521 16.6275,18.4203425 C15.2927344,17.8865479 14.2406641,17.5886438 13.6633203,17.4446849 L13.6633203,14.1779315 C14.2406641,14.0339726 15.2927344,13.7361096 16.6275,13.202274 C18.2655469,12.5471644 20.6219531,11.4100822 23.0101953,9.59134247 L23.0101953,12.894589 Z M24.8118359,17.2056301 C24.8118359,17.3557945 24.6957031,17.4780137 24.5529297,17.4780137 L24.1983984,17.4780137 L24.1983984,14.1446438 L24.5529297,14.1446438 C24.6956641,14.1446438 24.8118359,14.2668219 24.8118359,14.4169863 L24.8118359,17.2056301 Z" id="Shape"></path>
        </g>
    </g>
</svg>