<?xml version="1.0" encoding="UTF-8"?>
<svg width="32px" height="32px" viewBox="0 0 32 32" version="1.1" xmlns="http://www.w3.org/2000/svg" xmlns:xlink="http://www.w3.org/1999/xlink">
    <!-- Generator: Sketch 43.2 (39069) - http://www.bohemiancoding.com/sketch -->
    <title>Glyph/Settings</title>
    <desc>Created with Sketch.</desc>
    <defs></defs>
    <g id="Symbols" stroke="none" stroke-width="1" fill="none" fill-rule="evenodd">
        <g id="Glyph/Settings" fill-rule="nonzero" fill="#111926">
            <g id="Group-2" transform="translate(5.000000, 5.000000)">
                <path d="M21.1719955,9.38759866 L18.9950747,9.02443924 C18.8368562,8.37758528 18.6061628,7.7592553 18.3057168,7.18254627 L19.69932,5.45462653 C19.9957191,5.08945596 19.9822542,4.56403122 19.6697659,4.21158974 L18.8039666,3.23718841 C18.4901293,2.88511483 17.9696834,2.81065329 17.5727023,3.06145819 L15.7110167,4.23175028 C14.8921851,3.65965217 13.9646533,3.23718841 12.9640825,2.99204905 L12.5998685,0.803453735 C12.5234448,0.340031215 12.1224169,0 11.6516611,0 L10.3469164,0 C9.87711706,0 9.47474025,0.340031215 9.40000892,0.803453735 L9.03380825,2.99273579 C8.2065641,3.19527313 7.4309476,3.52220736 6.72312152,3.9527893 L4.9526243,2.68924861 C4.57104571,2.41663991 4.04694537,2.45926644 3.71395318,2.79154738 L2.79218506,3.7139777 C2.45990412,4.0469699 2.41727759,4.57107023 2.69059755,4.95264883 L3.95708138,6.72653066 C3.53054627,7.42901003 3.20697213,8.20021182 3.00445931,9.0200981 L0.803404682,9.38762319 C0.340693423,9.46404682 0,9.86509922 0,10.3358796 L0,11.6395942 C0,12.1103255 0.340693423,12.511427 0.803404682,12.5878506 L3.00445931,12.9553757 C3.17077146,13.6300424 3.41220736,14.2744928 3.73310814,14.8720245 L2.3458573,16.5901828 C2.05046377,16.95501 2.06287402,17.4807781 2.37536232,17.8329008 L3.24049944,18.8073266 C3.5543612,19.1600624 4.07507692,19.233175 4.47210702,18.9830078 L6.3606243,17.7966756 C7.15971237,18.3432419 8.06372352,18.7449565 9.03380825,18.9830078 L9.40000892,21.171971 C9.47476477,21.6354181 9.87711706,21.9754493 10.3469164,21.9754493 L11.6516611,21.9754493 C12.1224169,21.9754493 12.5234448,21.6354426 12.5998685,21.1719955 L12.9646957,18.9830323 C13.7816143,18.7832174 14.5473958,18.4619732 15.2489186,18.0387737 L17.0931906,19.3559532 C17.4740825,19.6295429 17.9985753,19.5866221 18.3312241,19.2532865 L19.2533601,18.331175 C19.5852486,17.9991884 19.6302051,17.4753824 19.3545797,17.0931171 L18.0415452,15.2522051 C18.4693066,14.5473712 18.7945975,13.774796 18.995835,12.9512553 L21.1727313,12.587777 C21.6367915,12.5113534 21.9761115,12.1102765 21.9761115,11.6395206 L21.9761115,10.335806 C21.9754247,9.86509922 21.6361048,9.46404682 21.1719955,9.38759866 Z M11.0225641,15.1081382 C8.74741583,15.1081382 6.90216276,13.2625418 6.90216276,10.9877369 C6.90216276,8.71258863 8.74741583,6.86733556 11.0225641,6.86733556 C13.29732,6.86733556 15.1429164,8.71258863 15.1429164,10.9877369 C15.1429164,13.2625418 13.29732,15.1081382 11.0225641,15.1081382 Z" id="settings_1_"></path>
            </g>
        </g>
    </g>
</svg>