<?xml version="1.0" encoding="UTF-8"?>
<svg width="22px" height="22px" viewBox="0 0 22 22" version="1.1" xmlns="http://www.w3.org/2000/svg" xmlns:xlink="http://www.w3.org/1999/xlink">
    <!-- Generator: Sketch 44.1 (41455) - http://www.bohemiancoding.com/sketch -->
    <title>Glyph/_misc/Add</title>
    <desc>Created with Sketch.</desc>
    <defs></defs>
    <g id="Symbols" stroke="none" stroke-width="1" fill="none" fill-rule="evenodd">
        <g id="Glyph/_misc/Add" fill-rule="nonzero" fill="#FFFFFF">
            <g id="plus" transform="translate(1.000000, 1.000000)">
                <path d="M10,0 C4.45454545,0 0,4.45454545 0,10 C0,15.5454545 4.45454545,20 10,20 C15.5454545,20 20,15.5454545 20,10 C20,4.45454545 15.5454545,0 10,0 Z M15.4545455,10.4545455 C15.4545455,10.7272727 15.2727273,10.9090909 15,10.9090909 L11.1363636,10.9090909 C11,10.9090909 10.9090909,11 10.9090909,11.1363636 L10.9090909,15 C10.9090909,15.2727273 10.7272727,15.4545455 10.4545455,15.4545455 L9.54545455,15.4545455 C9.27272727,15.4545455 9.09090909,15.2727273 9.09090909,15 L9.09090909,11.1363636 C9.09090909,11 9,10.9090909 8.86363636,10.9090909 L5,10.9090909 C4.72727273,10.9090909 4.54545455,10.7272727 4.54545455,10.4545455 L4.54545455,9.54545455 C4.54545455,9.27272727 4.72727273,9.09090909 5,9.09090909 L8.86363636,9.09090909 C9,9.09090909 9.09090909,9 9.09090909,8.86363636 L9.09090909,5 C9.09090909,4.72727273 9.27272727,4.54545455 9.54545455,4.54545455 L10.4545455,4.54545455 C10.7272727,4.54545455 10.9090909,4.72727273 10.9090909,5 L10.9090909,8.86363636 C10.9090909,9 11,9.09090909 11.1363636,9.09090909 L15,9.09090909 C15.2727273,9.09090909 15.4545455,9.27272727 15.4545455,9.54545455 L15.4545455,10.4545455 Z" id="Shape"></path>
            </g>
        </g>
    </g>
</svg>