<?xml version="1.0" encoding="UTF-8"?>
<svg width="14px" height="14px" viewBox="0 0 14 14" version="1.1" xmlns="http://www.w3.org/2000/svg" xmlns:xlink="http://www.w3.org/1999/xlink">
    <!-- Generator: Sketch 44.1 (41455) - http://www.bohemiancoding.com/sketch -->
    <title>Glyph/_misc/Check</title>
    <desc>Created with Sketch.</desc>
    <defs></defs>
    <g id="Symbols" stroke="none" stroke-width="1" fill="none" fill-rule="evenodd">
        <g id="Glyph/_misc/Check">
            <g id="Group-7">
                <circle id="Oval-3" fill="#00D78B" cx="7" cy="7" r="7"></circle>
                <g id="checked" transform="translate(3.000000, 4.000000)" fill-rule="nonzero" fill="#FFFFFF">
                    <path d="M0.0923076923,3.3 C0.0307692308,3.24 0,3.15 0,3.09 C0,3.03 0.0307692308,2.94 0.0923076923,2.88 L0.523076923,2.46 C0.646153846,2.34 0.830769231,2.34 0.953846154,2.46 L0.984615385,2.49 L2.67692308,4.26 C2.73846154,4.32 2.83076923,4.32 2.89230769,4.26 L7.01538462,0.09 L7.04615385,0.09 L7.04615385,0.09 C7.16923077,-0.03 7.35384615,-0.03 7.47692308,0.09 L7.90769231,0.51 C8.03076923,0.63 8.03076923,0.81 7.90769231,0.93 L7.90769231,0.93 L2.98461538,5.91 C2.92307692,5.97 2.86153846,6 2.76923077,6 C2.67692308,6 2.61538462,5.97 2.55384615,5.91 L0.153846154,3.39 L0.0923076923,3.3 L0.0923076923,3.3 Z" id="Shape"></path>
                </g>
            </g>
        </g>
    </g>
</svg>