<?xml version="1.0" encoding="UTF-8"?>
<svg width="7px" height="7px" viewBox="0 0 7 7" version="1.1" xmlns="http://www.w3.org/2000/svg" xmlns:xlink="http://www.w3.org/1999/xlink">
    <!-- Generator: Sketch 44.1 (41455) - http://www.bohemiancoding.com/sketch -->
    <title>Glyph/_misc/Close</title>
    <desc>Created with Sketch.</desc>
    <defs></defs>
    <g id="Symbols" stroke="none" stroke-width="1" fill="none" fill-rule="evenodd" fill-opacity="0.5">
        <g id="Glyph/_misc/Close" fill-rule="nonzero" fill="#111926">
            <path d="M4.50684932,3.61187215 C4.44292237,3.54794521 4.44292237,3.45205479 4.50684932,3.38812785 L6.90410959,0.99086758 C6.96803653,0.926940639 7,0.831050228 7,0.767123288 C7,0.703196347 6.96803653,0.607305936 6.90410959,0.543378995 L6.456621,0.095890411 C6.39269406,0.0319634703 6.29680365,3.24185123e-14 6.23287671,3.24185123e-14 C6.1369863,3.24185123e-14 6.07305936,0.0319634703 6.00913242,0.095890411 L3.61187215,2.49315068 C3.54794521,2.55707763 3.45205479,2.55707763 3.38812785,2.49315068 L0.99086758,0.095890411 C0.926940639,0.0319634703 0.831050228,3.24185123e-14 0.767123288,3.24185123e-14 C0.703196347,3.24185123e-14 0.607305936,0.0319634703 0.543378995,0.095890411 L0.095890411,0.543378995 C0.0319634703,0.607305936 5.17363929e-13,0.703196347 5.17363929e-13,0.767123288 C5.17363929e-13,0.831050228 0.0319634703,0.926940639 0.095890411,0.99086758 L2.49315068,3.38812785 C2.55707763,3.45205479 2.55707763,3.54794521 2.49315068,3.61187215 L0.095890411,6.00913242 C0.0319634703,6.07305936 5.17363929e-13,6.16894977 5.17363929e-13,6.23287671 C5.17363929e-13,6.29680365 0.0319634703,6.39269406 0.095890411,6.456621 L0.543378995,6.90410959 C0.607305936,6.96803653 0.703196347,7 0.767123288,7 C0.831050228,7 0.926940639,6.96803653 0.99086758,6.90410959 L3.38812785,4.50684932 C3.45205479,4.44292237 3.54794521,4.44292237 3.61187215,4.50684932 L6.00913242,6.90410959 C6.07305936,6.96803653 6.16894977,7 6.23287671,7 C6.29680365,7 6.39269406,6.96803653 6.456621,6.90410959 L6.90410959,6.456621 C6.96803653,6.39269406 7,6.29680365 7,6.23287671 C7,6.16894977 6.96803653,6.07305936 6.90410959,6.00913242 L4.50684932,3.61187215 Z" id="Close"></path>
        </g>
    </g>
</svg>