<?xml version="1.0" encoding="UTF-8"?>
<svg width="14px" height="14px" viewBox="0 0 14 14" version="1.1" xmlns="http://www.w3.org/2000/svg" xmlns:xlink="http://www.w3.org/1999/xlink">
    <!-- Generator: Sketch 44.1 (41455) - http://www.bohemiancoding.com/sketch -->
    <title>Glyph/_misc/Uncheck</title>
    <desc>Created with Sketch.</desc>
    <defs></defs>
    <g id="Symbols" stroke="none" stroke-width="1" fill="none" fill-rule="evenodd">
        <g id="Glyph/_misc/Uncheck">
            <g id="Group-9">
                <circle id="Oval-3" fill="#FE2E40" cx="7" cy="7" r="7"></circle>
                <g id="cancel" transform="translate(4.000000, 4.000000)" fill-rule="nonzero" fill="#FFFFFF">
                    <path d="M3.84545455,3.08181818 C3.79090909,3.02727273 3.79090909,2.94545455 3.84545455,2.89090909 L5.89090909,0.845454545 C5.94545455,0.790909091 5.97272727,0.709090909 5.97272727,0.654545455 C5.97272727,0.6 5.94545455,0.518181818 5.89090909,0.463636364 L5.50909091,0.0818181818 C5.45454545,0.0272727273 5.37272727,0 5.31818182,0 C5.23636364,0 5.18181818,0.0272727273 5.12727273,0.0818181818 L3.08181818,2.12727273 C3.02727273,2.18181818 2.94545455,2.18181818 2.89090909,2.12727273 L0.845454545,0.0818181818 C0.790909091,0.0272727273 0.709090909,0 0.654545455,0 C0.6,0 0.518181818,0.0272727273 0.463636364,0.0818181818 L0.0818181818,0.463636364 C0.0272727273,0.518181818 0,0.6 0,0.654545455 C0,0.709090909 0.0272727273,0.790909091 0.0818181818,0.845454545 L2.12727273,2.89090909 C2.18181818,2.94545455 2.18181818,3.02727273 2.12727273,3.08181818 L0.0818181818,5.12727273 C0.0272727273,5.18181818 0,5.26363636 0,5.31818182 C0,5.37272727 0.0272727273,5.45454545 0.0818181818,5.50909091 L0.463636364,5.89090909 C0.518181818,5.94545455 0.6,5.97272727 0.654545455,5.97272727 C0.709090909,5.97272727 0.790909091,5.94545455 0.845454545,5.89090909 L2.89090909,3.84545455 C2.94545455,3.79090909 3.02727273,3.79090909 3.08181818,3.84545455 L5.12727273,5.89090909 C5.18181818,5.94545455 5.26363636,5.97272727 5.31818182,5.97272727 C5.37272727,5.97272727 5.45454545,5.94545455 5.50909091,5.89090909 L5.89090909,5.50909091 C5.94545455,5.45454545 5.97272727,5.37272727 5.97272727,5.31818182 C5.97272727,5.26363636 5.94545455,5.18181818 5.89090909,5.12727273 L3.84545455,3.08181818 Z" id="Shape"></path>
                </g>
            </g>
        </g>
    </g>
</svg>