<?xml version="1.0" encoding="UTF-8"?>
<svg width="112px" height="112px" viewBox="0 0 112 112" version="1.1" xmlns="http://www.w3.org/2000/svg" xmlns:xlink="http://www.w3.org/1999/xlink">
    <!-- Generator: Sketch 44.1 (41455) - http://www.bohemiancoding.com/sketch -->
    <title>Avatar/Placeholder</title>
    <desc>Created with Sketch.</desc>
    <defs>
        <circle id="path-1" cx="56" cy="56" r="56"></circle>
    </defs>
    <g id="Symbols" stroke="none" stroke-width="1" fill="none" fill-rule="evenodd">
        <g id="Avatar/Placeholder">
            <g id="user-male-black-shape">
                <mask id="mask-2" fill="white">
                    <use xlink:href="#path-1"></use>
                </mask>
                <use id="Mask" fill="#D8D8D8" xlink:href="#path-1"></use>
                <path d="M83.1393827,85.6566667 L77.897679,85.6566667 C72.1084198,85.6566667 67.4144444,80.9626914 67.4144444,75.1732593 L67.4144444,71.8056543 C69.7336049,69.0492099 71.3970123,65.7887654 72.4309383,62.3435556 C72.5382716,61.7628148 73.0972346,61.4759012 73.4700494,61.076642 C75.4768889,59.0701481 75.8714815,55.6840494 74.3662222,53.2731111 C74.1612346,52.9072099 73.7920494,52.5898765 73.812963,52.1365185 C73.812963,49.0627407 73.8283457,45.9841235 73.8089877,42.9127654 C73.726716,39.2044938 72.6668642,35.3470617 70.0670123,32.6011605 C67.9680494,30.3825926 65.0859506,29.0615802 62.1125926,28.4962222 C58.3552346,27.7794568 54.4243457,27.8157531 50.7029383,28.7623951 C47.4779259,29.5762963 44.4480494,31.4650864 42.574642,34.2649136 C40.9157284,36.6990123 40.1889383,39.6545679 40.0662222,42.5674321 C40.0202469,45.6947901 40.055679,48.8299259 40.0461728,51.9648889 C40.1175556,52.5924691 39.5852099,53.0171358 39.3447901,53.5366914 C37.9269877,56.108716 38.5511111,59.6128642 40.8293086,61.4835062 C41.407284,61.8824198 41.5154815,62.6095556 41.7247901,63.2364444 C42.7182716,66.3332099 44.3661235,69.1971605 46.449358,71.6926173 L46.449358,75.1732593 C46.449358,80.9626914 41.7555556,85.6566667 35.9664691,85.6566667 L30.7245926,85.6566667 C30.7245926,85.6566667 21.224642,88.2765679 15,101.380741 L15,106.622444 C15,109.519062 17.3443951,111.863111 20.2417037,111.863111 L93.6227901,111.863111 C96.5194074,111.863111 98.8636296,109.519062 98.8636296,106.622444 L98.8636296,101.380741 C92.6393333,88.2776049 83.1393827,85.6566667 83.1393827,85.6566667 Z" id="Shape" fill="#9B9B9B" mask="url(#mask-2)"></path>
            </g>
        </g>
    </g>
</svg>