<?xml version="1.0" encoding="UTF-8"?>
<svg width="81px" height="26px" viewBox="0 0 81 26" version="1.1" xmlns="http://www.w3.org/2000/svg" xmlns:xlink="http://www.w3.org/1999/xlink">
    <!-- Generator: Sketch 44 (41411) - http://www.bohemiancoding.com/sketch -->
    <title>KIOS-Type-Orange</title>
    <desc>Created with Sketch.</desc>
    <defs></defs>
    <g id="Page-2" stroke="none" stroke-width="1" fill="none" fill-rule="evenodd">
        <g id="KIOS-Type-Orange" fill="#FF6131">
            <path d="M7.21,0.7 L0,0.7 L0,25.06 L7.21,25.06 L7.21,0.7 Z M21.63,0.7 L14.21,0.7 L7.42,12.075 L14.07,25.06 L22.26,25.06 L14.735,11.515 L21.63,0.7 Z M31.908333,0.7 L24.698333,0.7 L24.698333,25.06 L31.908333,25.06 L31.908333,0.7 Z M47.1216659,0 C54.4366659,0 58.4966659,4.76 58.4966659,12.845 C58.4966659,20.755 54.4366659,25.76 47.1216659,25.76 C39.8066659,25.76 35.7466659,20.93 35.7466659,12.845 C35.7466659,4.935 39.8066659,0 47.1216659,0 Z M47.1216659,5.11 C44.3916659,5.11 43.2366659,7.21 43.2366659,12.845 C43.2366659,18.48 44.3916659,20.65 47.1216659,20.65 C49.9216659,20.65 51.0066659,18.48 51.0066659,12.845 C51.0066659,7.21 49.8516659,5.11 47.1216659,5.11 Z M71.2949989,0 C65.9049989,0 61.8449989,2.835 61.8449989,7.455 C61.8449989,10.99 63.5599989,13.475 69.4399989,15.33 C72.6249989,16.31 73.3949989,16.94 73.3949989,18.375 C73.3949989,19.635 72.4499989,20.58 70.3499989,20.58 C68.0749989,20.58 66.1149989,19.705 64.3649989,18.2 L60.8299989,22.085 C62.8249989,24.01 65.9749989,25.76 70.6299989,25.76 C77.0349989,25.76 80.8849989,22.47 80.8849989,17.78 C80.8849989,13.405 78.6449989,11.235 73.6399989,9.625 C70.1749989,8.505 69.2649989,8.12 69.2649989,6.86 C69.2649989,5.775 70.1399989,5.11 71.8899989,5.11 C73.8149989,5.11 75.4949989,5.775 77.1049989,7.07 L80.2899989,3.325 C78.0849989,1.19 75.2149989,0 71.2949989,0 Z" id="KIOS"></path>
        </g>
    </g>
</svg>