<?xml version="1.0" encoding="UTF-8"?>
<svg width="32px" height="32px" viewBox="0 0 32 32" version="1.1" xmlns="http://www.w3.org/2000/svg" xmlns:xlink="http://www.w3.org/1999/xlink">
    <!-- Generator: Sketch 44.1 (41455) - http://www.bohemiancoding.com/sketch -->
    <title>Glyph/Light/Account</title>
    <desc>Created with Sketch.</desc>
    <defs></defs>
    <g id="Symbols" stroke="none" stroke-width="1" fill="none" fill-rule="evenodd">
        <g id="Glyph/Light/Account" fill-rule="nonzero" fill="#FFFFFF">
            <path d="M23.5232813,18.8905859 C22.5360547,17.8497656 21.3498438,17.0925781 20.1005859,16.6801953 C21.3453125,15.5576172 22.1290234,13.9332422 22.1290234,12.1290234 C22.1290234,8.74949219 19.3795312,6 16,6 C12.6204687,6 9.87097656,8.74949219 9.87097656,12.1290234 C9.87097656,13.9332031 10.6547266,15.5576172 11.8994141,16.6802344 C10.6500391,17.0926172 9.46394531,17.8497656 8.47671875,18.890625 C6.87960938,20.5744531 6,22.755625 6,25.0322656 L6,26 L26,26 L26,25.0322656 C26,22.755625 25.1203906,20.5744531 23.5232813,18.8905859 Z M11.8064453,12.1290234 C11.8064453,9.81671875 13.6876563,7.93546875 16,7.93546875 C18.3123047,7.93546875 20.1935547,9.81667969 20.1935547,12.1290234 C20.1935547,14.4413281 18.3123438,16.3225781 16,16.3225781 C13.6876953,16.3225781 11.8064453,14.4413672 11.8064453,12.1290234 Z M8.00359375,24.0645313 C8.48398438,20.6829297 11.4175781,18.2580859 14.0644922,18.2580859 L17.9354688,18.2580859 C20.5823047,18.2580859 23.5159766,20.6829297 23.9963672,24.0645313 L8.00359375,24.0645313 Z" id="Shape"></path>
        </g>
    </g>
</svg>