<?xml version="1.0" encoding="UTF-8"?>
<svg width="32px" height="32px" viewBox="0 0 32 32" version="1.1" xmlns="http://www.w3.org/2000/svg" xmlns:xlink="http://www.w3.org/1999/xlink">
    <!-- Generator: Sketch 44.1 (41455) - http://www.bohemiancoding.com/sketch -->
    <title>Glyph/Light/Dashboard</title>
    <desc>Created with Sketch.</desc>
    <defs></defs>
    <g id="Symbols" stroke="none" stroke-width="1" fill="none" fill-rule="evenodd">
        <g id="Glyph/Light/Dashboard" fill-rule="nonzero" fill="#FFFFFF">
            <g id="dashboard" transform="translate(7.000000, 5.000000)">
                <g id="Capa_1">
                    <path d="M0.0425647059,0 L0.0425647059,21.9214624 L17.8871294,21.9214624 L17.8871294,0 L0.0425647059,0 Z M16.596,1.44230108 L16.596,5.01623656 L1.33369412,5.01623656 L1.33369412,1.44230108 L16.596,1.44230108 Z M1.33369412,9.80703226 L1.33369412,6.45830108 L11.4825176,6.45830108 L11.4825176,9.80703226 L1.33369412,9.80703226 Z M4.83352941,11.2490968 L4.83352941,14.9734839 L1.33369412,14.9734839 L1.33369412,11.2490968 L4.83352941,11.2490968 Z M6.12465882,11.2490968 L16.596,11.2490968 L16.596,14.9734839 L6.12465882,14.9734839 L6.12465882,11.2490968 Z M12.7732235,9.80703226 L12.7732235,6.45830108 L16.596,6.45830108 L16.596,9.80703226 L12.7732235,9.80703226 Z M1.33369412,20.4789247 L1.33369412,16.4160215 L16.596,16.4160215 L16.596,20.4796344 L1.33369412,20.4796344 L1.33369412,20.4789247 Z" id="Shape"></path>
                </g>
            </g>
        </g>
    </g>
</svg>