<?xml version="1.0" encoding="UTF-8"?>
<svg width="32px" height="32px" viewBox="0 0 32 32" version="1.1" xmlns="http://www.w3.org/2000/svg" xmlns:xlink="http://www.w3.org/1999/xlink">
    <!-- Generator: Sketch 44.1 (41455) - http://www.bohemiancoding.com/sketch -->
    <title>Glyph/Light/Search</title>
    <desc>Created with Sketch.</desc>
    <defs></defs>
    <g id="Symbols" stroke="none" stroke-width="1" fill="none" fill-rule="evenodd">
        <g id="Glyph/Light/Search" fill="#FFFFFF">
            <path d="M24.7263218,23.395148 L20.2890139,18.9395429 C21.4299237,17.6301303 22.0550349,15.9826212 22.0550349,14.2674929 C22.0550349,10.2602605 18.6781252,7 14.5275175,7 C10.3769098,7 7,10.2602605 7,14.2674929 C7,18.2747253 10.3769098,21.5349858 14.5275175,21.5349858 C16.0857136,21.5349858 17.5705982,21.0812414 18.8401304,20.2198855 L23.3111485,24.7093003 C23.4980273,24.8966752 23.7493809,25 24.0187352,25 C24.2736889,25 24.5155513,24.9061545 24.6991573,24.7355265 C25.0892791,24.3730997 25.1017158,23.7721097 24.7263218,23.395148 Z M14.5275175,8.89586771 C17.5954718,8.89586771 20.0913347,11.3055156 20.0913347,14.2674929 C20.0913347,17.2294702 17.5954718,19.6391181 14.5275175,19.6391181 C11.4595632,19.6391181 8.96370021,17.2294702 8.96370021,14.2674929 C8.96370021,11.3055156 11.4595632,8.89586771 14.5275175,8.89586771 Z" id="Shape"></path>
        </g>
    </g>
</svg>