<?xml version="1.0" encoding="UTF-8"?>
<svg width="32px" height="32px" viewBox="0 0 32 32" version="1.1" xmlns="http://www.w3.org/2000/svg" xmlns:xlink="http://www.w3.org/1999/xlink">
    <!-- Generator: Sketch 43.2 (39069) - http://www.bohemiancoding.com/sketch -->
    <title>Glyph/Download/Light</title>
    <desc>Created with Sketch.</desc>
    <defs></defs>
    <g id="Symbols" stroke="none" stroke-width="1" fill="none" fill-rule="evenodd">
        <g id="Glyph/Download/Light" fill-rule="nonzero" fill="#FFFFFF">
            <g id="Group-5" transform="translate(5.000000, 6.000000)">
                <path d="M21.6297661,14.3828204 C21.3832213,14.1276706 21.0833295,14 20.7309242,14 L14.5961084,14 L12.7980542,15.8593653 C12.2868118,16.3697126 11.6874913,16.625006 11,16.625006 C10.3126476,16.625006 9.71314184,16.3700478 9.20194579,15.8593653 L7.4170894,14 L1.26921474,14 C0.916716834,14 0.617056568,14.1278143 0.370187632,14.3828204 C0.123365005,14.6379701 0,14.9479042 0,15.3126706 L0,19.6876646 C0,20.0522874 0.123365005,20.3621736 0.370187632,20.6173712 C0.617010259,20.8725209 0.916670526,21 1.26921474,21 L20.7309705,21 C21.0833758,21 21.3832676,20.8725209 21.6298124,20.6173712 C21.8767276,20.3621736 22,20.0522874 22,19.6876646 L22,15.3126706 C22,14.9479042 21.8767276,14.6379701 21.6297661,14.3828204 Z M16.6721044,18.9903607 C16.5044224,19.1635733 16.3060382,19.2501077 16.076859,19.2501077 C15.8476797,19.2501077 15.6495733,19.1635733 15.4819377,18.9903607 C15.3145799,18.8171482 15.230901,18.6121377 15.230901,18.3752813 C15.230901,18.1383292 15.3145799,17.9329835 15.4819377,17.7600583 C15.6495733,17.5867021 15.8476797,17.4999761 16.076859,17.4999761 C16.3060382,17.4999761 16.5043761,17.5867021 16.6721044,17.7600583 C16.8394158,17.9329356 16.923141,18.1382814 16.923141,18.3752813 C16.923141,18.6120898 16.8394158,18.8171482 16.6721044,18.9903607 Z M20.0564918,18.9903607 C19.889134,19.1635733 19.6907497,19.2501077 19.4615242,19.2501077 C19.2323913,19.2501077 19.034146,19.1635733 18.866603,18.9903607 C18.6992915,18.8171482 18.6156126,18.6121377 18.6156126,18.3752813 C18.6156126,18.1383292 18.6992915,17.9329835 18.866603,17.7600583 C19.0340997,17.5867021 19.232345,17.4999761 19.4615242,17.4999761 C19.6907034,17.4999761 19.8890877,17.5867021 20.0564918,17.7600583 C20.2239885,17.9329356 20.3078063,18.1382814 20.3078063,18.3752813 C20.3078063,18.6120898 20.2241274,18.8171482 20.0564918,18.9903607 Z" id="Shape"></path>
                <path d="M10.3860728,14.7382255 C10.5499003,14.9126936 10.7545413,15 11.0000436,15 C11.2457371,15 11.4501391,14.9126936 11.6140144,14.7382255 L17.7268164,8.5616811 C18.0087355,8.29517432 18.0725365,7.97342498 17.917837,7.59657792 C17.7634721,7.23822554 17.4950301,7.05902521 17.1128456,7.05883205 L13.6197544,7.05883205 L13.6197544,0.882384187 C13.6197544,0.643450407 13.533205,0.436628787 13.3606795,0.262015903 C13.1876761,0.0873547307 12.9830829,0 12.7467087,0 L9.25337854,0 C9.01700431,0 8.81231551,0.0873547307 8.63940771,0.262015903 C8.46664328,0.436628787 8.38018938,0.643402118 8.38018938,0.882384187 L8.38018938,7.05888034 L4.8871938,7.05888034 C4.50496147,7.05888034 4.23675844,7.23827383 4.0821068,7.59662621 C3.92755075,7.9733284 3.99116055,8.29522261 4.27322297,8.56172939 L10.3860728,14.7382255 Z" id="Shape"></path>
            </g>
        </g>
    </g>
</svg>